<svg id="Capa_1" enable-background="new 0 0 512 512" height="512" viewBox="0 0 512 512" width="512" xmlns="http://www.w3.org/2000/svg"><g><path d="m467 301h-124.272l165.478-185.039c5.508-6.182 4.951-15.674-1.245-21.167-6.211-5.522-15.703-4.966-21.167 1.245l-183.186 204.961h-93.215l-183.187-204.961c-5.493-6.211-14.985-6.768-21.167-1.245-6.196 5.493-6.753 14.985-1.245 21.167l165.478 185.039h-124.272c-24.814 0-45 20.186-45 45v60c0 24.814 20.186 45 45 45h422c24.814 0 45-20.186 45-45v-60c0-24.814-20.186-45-45-45zm-181 90c-8.284 0-15-6.716-15-15s6.716-15 15-15 15 6.716 15 15-6.716 15-15 15zm60 0c-8.284 0-15-6.716-15-15s6.716-15 15-15 15 6.716 15 15-6.716 15-15 15zm60 0c-8.284 0-15-6.716-15-15s6.716-15 15-15 15 6.716 15 15-6.716 15-15 15z"/><path d="m370.609 128.178c5.728-5.977 5.537-15.469-.439-21.211-30.908-29.649-71.455-45.967-114.17-45.967s-83.262 16.318-114.17 45.967c-5.977 5.742-6.167 15.234-.439 21.211 5.728 5.991 15.22 6.152 21.211.439 25.283-24.258 58.461-37.617 93.398-37.617s68.115 13.359 93.398 37.617c6.034 5.761 15.493 5.506 21.211-.439z"/><path d="m329.008 171.361c5.728-5.977 5.522-15.483-.469-21.211-39.258-37.588-105.82-37.588-145.078 0-5.991 5.728-6.196 15.234-.469 21.211 5.728 5.991 15.249 6.182 21.211.469 28.066-26.865 75.527-26.865 103.594 0 5.962 5.72 15.481 5.517 21.211-.469z"/><path d="m225.136 193.261c-6.035 5.684-6.313 15.176-.63 21.196 5.654 6.05 15.19 6.328 21.196.63 5.596-5.273 15-5.273 20.596 0 5.984 5.68 15.522 5.411 21.196-.63 5.684-6.021 5.405-15.513-.63-21.196-16.758-15.821-44.97-15.821-61.728 0z"/></g></svg>